<svg xmlns="http://www.w3.org/2000/svg" version="1.1" xmlns:xlink="http://www.w3.org/1999/xlink" viewBox="0 0 200 200"><rect width="200" height="200" fill="url('#gradient')"></rect><defs><linearGradient id="gradient" gradientTransform="rotate(45 0.5 0.5)"><stop offset="0%" stop-color="#f5f5f5"></stop><stop offset="100%" stop-color="#f5f5f5"></stop></linearGradient></defs><g><g fill="#008cba" transform="matrix(8.17746228926353,0,0,8.17746228926353,1.2161754014329205,158.1411328349583)" stroke="#008cba" stroke-width="0.2"><path d="M4.50-14.22L4.50-2.64L10.47-2.64L10.47 0L1.07 0L1.07-14.22L4.50-14.22ZM16.59 0L11.91 0L11.91-14.22L16.49-14.22Q18.38-14.22 19.88-13.36Q21.39-12.51 22.23-10.95Q23.08-9.39 23.09-7.46L23.09-7.46L23.09-6.81Q23.09-4.85 22.26-3.31Q21.44-1.76 19.94-0.88Q18.44-0.01 16.59 0L16.59 0ZM16.49-11.57L15.34-11.57L15.34-2.64L16.53-2.64Q18.01-2.64 18.80-3.69Q19.59-4.74 19.59-6.81L19.59-6.81L19.59-7.42Q19.59-9.48 18.80-10.53Q18.01-11.57 16.49-11.57L16.49-11.57Z"></path></g></g></svg>